     <svg
            width="20"
            height="20"
            viewBox="0 0 48 48"
            fill="none"
            xmlns="http://www.w3.org/2000/svg"
          >
            <g clipPath="url(#clip0_17_40)">
              <path
                d="M47.5 24.552C47.5 22.864 47.345 21.232 47.065 19.667H24V28.334H37.055C36.485 31.334 34.64 33.834 31.945 35.334V40.334H39.5C44.055 36.334 47.5 30.334 47.5 24.552Z"
                fill="#4285F4"
              />
              <path
                d="M24 48C30.48 48 35.98 45.834 39.5 40.334L31.945 35.334C30.14 36.534 27.94 37.334 24 37.334C18.74 37.334 14.18 33.834 12.64 29.334H4.86V34.334C8.36 41.334 15.54 48 24 48Z"
                fill="#34A853"
              />
              <path
                d="M12.64 29.334C12.24 28.134 12 26.867 12 25.5C12 24.133 12.24 22.866 12.64 21.666V16.666H4.86C3.64 19.066 3 21.7 3 24.5C3 27.3 3.64 29.934 4.86 32.334L12.64 29.334Z"
                fill="#FBBC05"
              />
              <path
                d="M24 13.666C27.22 13.666 29.68 14.866 31.18 16.266L39.62 8.066C35.98 4.666 30.48 1.99997 24 1.99997C15.54 1.99997 8.36 8.66601 4.86 16.666L12.64 21.666C14.18 17.166 18.74 13.666 24 13.666Z"
                fill="#EA4335"
              />
            </g>
            <defs>
              <clipPath id="clip0_17_40">
                <rect width="48" height="48" fill="white" />
              </clipPath>
            </defs>
          </svg>